<svg xmlns="http://www.w3.org/2000/svg" viewBox="0 0 100 100"><defs><style>.cls-1{fill:#231f20;}.cls-1,.cls-2{stroke:#231f20;stroke-miterlimit:10;stroke-width:1.5px;}.cls-2{fill:#ffd44d;}</style></defs><g id="Layer_2" data-name="Layer 2"><rect class="cls-1" x="22.64" y="21.2" width="61.31" height="61.31" rx="8.01" transform="translate(105.14 -1.43) rotate(90)"/><path class="cls-2" d="M69.57,17.49h6.36a8,8,0,0,1,8,8V70.79a8,8,0,0,1-8,8H30.65a8,8,0,0,1-8-8V25.5a8,8,0,0,1,8-8H55.87"/><rect class="cls-1" x="64.28" y="24.14" width="12.7" height="12.7" transform="translate(101.13 -40.14) rotate(90)"/><rect class="cls-1" x="69.57" y="45.8" width="7.42" height="7.42" transform="translate(122.78 -23.77) rotate(90)"/><rect class="cls-1" x="49.58" y="36.84" width="7.42" height="7.42" transform="translate(93.84 -12.74) rotate(90)"/><rect class="cls-1" x="56.86" y="44.43" width="7.42" height="7.42" transform="translate(108.72 -12.43) rotate(90)"/><rect class="cls-1" x="55.87" y="67.45" width="4.7" height="4.7" transform="translate(128.02 11.58) rotate(90)"/><rect class="cls-1" x="34.45" y="39.41" width="10.48" height="20.19" transform="translate(89.2 9.82) rotate(90)"/><rect class="cls-1" x="29.59" y="24.14" width="12.7" height="12.7" transform="translate(66.44 -5.45) rotate(90)"/><rect class="cls-1" x="42.52" y="24.85" width="6.35" height="4.94" transform="translate(73.01 -18.38) rotate(90)"/><rect class="cls-1" x="64.28" y="59.45" width="12.7" height="12.7" transform="translate(136.43 -4.84) rotate(90)"/><rect class="cls-1" x="29.59" y="59.45" width="12.7" height="12.7" transform="translate(101.74 29.85) rotate(90)"/><rect class="cls-1" x="29.59" y="24.1" width="12.7" height="12.7" transform="translate(66.39 -5.49) rotate(90)"/><rect class="cls-2" x="32.23" y="26.73" width="7.43" height="7.43" transform="translate(66.39 -5.49) rotate(90)"/><rect class="cls-2" x="66.92" y="26.73" width="7.43" height="7.43" transform="translate(101.09 -40.18) rotate(90)"/><rect class="cls-2" x="32.23" y="62.04" width="7.43" height="7.43" transform="translate(101.7 29.81) rotate(90)"/><rect class="cls-2" x="66.92" y="62.04" width="7.43" height="7.43" transform="translate(136.39 -4.88) rotate(90)"/></g></svg>